<?xml version="1.0" encoding="utf-8"?>
<!-- Generator: Adobe Illustrator 23.0.1, SVG Export Plug-In . SVG Version: 6.00 Build 0)  -->
<svg version="1.1" id="Capa_1" xmlns="http://www.w3.org/2000/svg" xmlns:xlink="http://www.w3.org/1999/xlink" x="0px" y="0px"
	 viewBox="0 0 16 16" style="enable-background:new 0 0 16 16;" xml:space="preserve">
<style type="text/css">
	.st0{fill:#43438D;}
	.st1{fill:none;stroke:#43438D;stroke-width:1.35;stroke-linecap:round;stroke-linejoin:round;stroke-miterlimit:10;}
</style>
<g>
	<path class="st0" d="M8,9.6c-0.4,0-0.7-0.3-0.7-0.7V0.8c0-0.4,0.3-0.7,0.7-0.7s0.7,0.3,0.7,0.7v8.1C8.7,9.3,8.4,9.6,8,9.6z"/>
</g>
<g>
	<polygon class="st0" points="8,9.5 5.4,6.9 4.9,7.4 8,10.5 11.1,7.4 10.6,6.9 	"/>
	<path class="st0" d="M8,10.7L4.7,7.4l0.7-0.7L8,9.3l2.6-2.6l0.7,0.7L8,10.7z M5.1,7.4L8,10.3l2.9-2.9l-0.3-0.3L8,9.7L5.4,7.1
		L5.1,7.4z"/>
</g>
<path class="st1" d="M2.8,6.7H1.9c-0.4,0-0.7,0.4-0.7,0.8v4.6c0,0.5,0.3,0.8,0.7,0.8h12.2c0.4,0,0.7-0.4,0.7-0.8V7.5
	c0-0.5-0.3-0.8-0.7-0.8h-0.9"/>
<image style="overflow:visible;" width="16" height="16" xlink:href="23FCCE09.jpg"  transform="matrix(1 0 0 1 19.9802 0.7)">
</image>
</svg>
