<?xml version="1.0" encoding="utf-8"?>
<!-- Generator: Adobe Illustrator 23.0.1, SVG Export Plug-In . SVG Version: 6.00 Build 0)  -->
<svg version="1.1" id="Capa_1" xmlns="http://www.w3.org/2000/svg" xmlns:xlink="http://www.w3.org/1999/xlink" x="0px" y="0px"
	 viewBox="0 0 200 200" style="enable-background:new 0 0 200 200;" xml:space="preserve">
<style type="text/css">
	.st0{fill:#9C176C;}
	.st1{fill:#FFFFFF;}
</style>
<rect x="0" y="0" class="st0" width="200" height="200"/>
<g>
	<path class="st1" d="M60.6,179.2V18.8h37.1c15,0,25.9,3,32.8,9.1c6.9,6.1,10.3,16.1,10.3,30c0,1.9,0,3.7,0,5.4
		c0,1.7-0.1,3.5-0.2,5.2c-0.5,7.3-2.1,13.1-4.9,17.4c-2.8,4.3-7.2,7.5-13.1,9.5v4.8c6.2,2,10.7,5.2,13.5,9.6
		c2.9,4.4,4.4,10.3,4.7,17.9c0.2,4.1,0.2,8.2,0,12.4c-0.6,13.9-4.2,23.9-10.8,30c-6.6,6.1-17.4,9.1-32.3,9.1H60.6z M90.7,84.4h7
		c4.2,0,7.4-1.5,9.7-4.4c2.2-2.9,3.4-7,3.4-12.3V56.3c0-7.4-4.3-11-13-11h-7V84.4z M90.7,152.8h7c8.7,0,13-4.3,13-13v-10.6
		c0-6.6-1-11.3-3.1-14.1c-2-2.8-5.4-4.2-10-4.2h-7V152.8z"/>
</g>
</svg>
