<?xml version="1.0" encoding="utf-8"?>
<!-- Generator: Adobe Illustrator 23.0.1, SVG Export Plug-In . SVG Version: 6.00 Build 0)  -->
<svg version="1.1" id="Capa_1" xmlns="http://www.w3.org/2000/svg" xmlns:xlink="http://www.w3.org/1999/xlink" x="0px" y="0px"
	 viewBox="0 0 24 24" style="enable-background:new 0 0 24 24;" xml:space="preserve">
<style type="text/css">
	.st0{fill:#7F2F2F;}
	.st1{fill:url(#SVGID_1_);}
	.st2{fill:url(#SVGID_2_);}
	.st3{fill:url(#SVGID_3_);}
	.st4{fill:url(#SVGID_4_);}
	.st5{fill:url(#SVGID_5_);}
	.st6{fill:none;stroke:#000000;stroke-miterlimit:10;}
	.st7{fill:none;stroke:#000000;stroke-width:0.75;stroke-linecap:round;stroke-linejoin:round;}
	.st8{fill:none;stroke:#000000;stroke-width:0.75;stroke-miterlimit:10;}
	.st9{fill:none;stroke:#A49E9A;stroke-width:0.5;stroke-miterlimit:10;}
</style>
<path class="st7" d="M5.9,5.1c1-2,2.4-3.2,4-3.2c3,0,5.5,4.5,5.5,10.1c0,5.6-2.5,10.1-5.5,10.1c-1.5,0-2.8-1.1-3.8-2.9"/>
<g>
	<polygon points="9.5,4.9 9.3,4.2 6,5.2 5.3,1.8 4.6,2 5.5,6.1 	"/>
</g>
<g>
	<path class="st7" d="M20.1,9.2c1,0.8,1.6,1.6,1.6,2.6c0,2.7-4.5,4.8-10.1,4.8S1.4,14.5,1.4,11.8c0-1.3,1.1-2.5,2.9-3.4"/>
	<g>
		<polygon points="18.8,12.2 19.5,12.3 19.8,8.9 23.2,9.4 23.3,8.7 19.2,8 		"/>
	</g>
</g>
</svg>
