<?xml version="1.0" encoding="utf-8"?>
<!-- Generator: Adobe Illustrator 23.0.1, SVG Export Plug-In . SVG Version: 6.00 Build 0)  -->
<svg version="1.1" id="Capa_1" xmlns="http://www.w3.org/2000/svg" xmlns:xlink="http://www.w3.org/1999/xlink" x="0px" y="0px"
	 viewBox="0 0 24 24" style="enable-background:new 0 0 24 24;" xml:space="preserve">
<style type="text/css">
	.st0{fill:#7F2F2F;}
	.st1{fill:url(#SVGID_1_);}
	.st2{fill:url(#SVGID_2_);}
	.st3{fill:url(#SVGID_3_);}
	.st4{fill:url(#SVGID_4_);}
	.st5{fill:url(#SVGID_5_);}
	.st6{fill:none;stroke:#000000;stroke-miterlimit:10;}
	.st7{fill:none;stroke:#000000;stroke-width:0.75;stroke-linecap:round;stroke-linejoin:round;}
	.st8{fill:none;stroke:#000000;stroke-width:0.75;stroke-miterlimit:10;}
	.st9{fill:none;stroke:#A49E9A;stroke-width:0.5;stroke-miterlimit:10;}
</style>
<g>
	<path class="st8" d="M2.4,11.1l4,2.2c0.2,0.1,0.5,0,0.5-0.3v-1.9c0-0.8,0.7-1.5,1.5-1.5h12.2c0.8,0,1.5,0.7,1.5,1.5v8.6
		c0,0.8-0.7,1.5-1.5,1.5H8.4c-0.8,0-1.5-0.7-1.5-1.5v-1.6c0-0.2-0.2-0.4-0.5-0.3l-4,2.2C2.2,20.2,2,20,2,19.8v-8.4
		C2,11.1,2.2,11,2.4,11.1z"/>
	<circle class="st8" cx="17.9" cy="5.9" r="2"/>
	<circle class="st8" cx="11.3" cy="5.2" r="2.7"/>
</g>
</svg>
